<!-- Generated by IcoMoon.io -->
<svg version="1.1" xmlns="http://www.w3.org/2000/svg" width="32" height="32" viewBox="0 0 32 32">
<title>ae</title>
<path fill="#000" d="M1.511 1.362h29.397v29.125h-29.396v-29.125z"></path>
<path fill="#d8a1ff" d="M1.511 1.362h29.397v29.125h-29.396v-29.125zM0.175 31.848h32.075v-31.846h-32.076v31.846zM22.867 15.352c0.681 0 0.925 0 0.989-0.026 0-0.098 0.026-0.164 0.026-0.229 0-0.732-0.347-2.093-1.734-2.093-1.284 0-1.83 1.144-1.965 2.355h2.685v-0.007zM20.156 17.217c0.026 1.838 0.88 3.074 2.916 3.074 0.79 0 1.471-0.111 2.177-0.419 0.096-0.039 0.161-0.026 0.161 0.098v1.701c0 0.137-0.038 0.203-0.135 0.275-0.707 0.353-1.593 0.517-2.685 0.517-3.526 0-4.849-2.655-4.849-5.605 0-3.211 1.631-5.841 4.502-5.841 2.916 0 3.931 2.492 3.931 4.52 0 0.654-0.039 1.184-0.109 1.445-0.026 0.111-0.064 0.15-0.173 0.177-0.27 0.040-1.053 0.098-2.229 0.098h-3.501v-0.040h-0.006zM12.988 15.83c-0.373-1.511-1.285-4.801-1.618-6.396h-0.026c-0.283 1.589-1.015 4.284-1.56 6.396h3.205zM9.238 18.034l-1.053 4.069c-0.026 0.111-0.064 0.15-0.199 0.15h-1.972c-0.135 0-0.161-0.040-0.135-0.203l3.796-13.513c0.064-0.242 0.109-0.438 0.135-1.118 0-0.098 0.038-0.137 0.109-0.137h2.807c0.096 0 0.135 0.026 0.16 0.137l4.246 14.657c0.026 0.111 0 0.177-0.109 0.177h-2.203c-0.109 0-0.173-0.040-0.199-0.137l-1.098-4.081h-4.284z"></path>
</svg>
