<!-- Generated by IcoMoon.io -->
<svg version="1.1" xmlns="http://www.w3.org/2000/svg" width="32" height="32" viewBox="0 0 32 32">
<title>ai</title>
<path fill="#000" d="M1.511 1.362h29.397v29.125h-29.396v-29.125z"></path>
<path fill="#ff7f18" d="M1.511 1.362h29.397v29.125h-29.396v-29.125zM0.175 31.848h32.075v-31.846h-32.076v31.846zM21.184 11.356c0-0.111 0.039-0.164 0.161-0.164h2.101c0.109 0 0.16 0.040 0.16 0.164v10.74c0 0.111-0.026 0.163-0.16 0.163h-2.075c-0.135 0-0.174-0.065-0.174-0.176v-10.727h-0.013zM21.036 8.262c0-0.87 0.604-1.386 1.362-1.386 0.816 0 1.362 0.556 1.362 1.386 0 0.896-0.572 1.387-1.387 1.387-0.771 0.006-1.336-0.484-1.336-1.387zM15.025 15.83c-0.373-1.511-1.259-4.801-1.593-6.396h-0.026c-0.283 1.589-0.989 4.284-1.548 6.396h3.167zM11.312 18.034l-1.053 4.082c-0.026 0.111-0.064 0.137-0.199 0.137h-1.966c-0.135 0-0.16-0.040-0.135-0.203l3.796-13.526c0.064-0.242 0.109-0.465 0.135-1.131 0-0.098 0.039-0.137 0.109-0.137h2.807c0.096 0 0.135 0.026 0.161 0.137l4.252 14.684c0.026 0.111 0 0.177-0.109 0.177h-2.216c-0.109 0-0.173-0.026-0.199-0.124l-1.098-4.094h-4.284z"></path>
</svg>
