<!-- Generated by IcoMoon.io -->
<svg version="1.1" xmlns="http://www.w3.org/2000/svg" width="32" height="32" viewBox="0 0 32 32">
<title>be</title>
<path stroke-linejoin="miter" stroke-linecap="butt" stroke-miterlimit="4" stroke-width="0.3902" stroke="#000" fill="#000" d="M26.724 0.169h-22.138c-2.528 0-4.586 2.051-4.586 4.574v22.075c0 2.522 2.058 4.574 4.587 4.574h22.138c2.529 0 4.586-2.052 4.586-4.574v-22.075c0-2.523-2.058-4.574-4.587-4.574zM29.476 26.819c-0.004 1.517-1.234 2.745-2.752 2.745-0 0-0.001 0-0.001 0h-22.138c0 0 0 0 0 0-1.517 0-2.748-1.228-2.752-2.744v-22.076c0.004-1.517 1.234-2.745 2.752-2.745 0 0 0.001 0 0.001 0h22.138c0 0 0 0 0 0 1.517 0 2.747 1.228 2.752 2.743v22.076z"></path>
<path stroke-linejoin="miter" stroke-linecap="butt" stroke-miterlimit="4" stroke-width="0.3902" stroke="#000" fill="#000" d="M14.738 13.037c0-2.018-1.646-3.659-3.669-3.659h-5.503v12.806h5.503c2.023 0 3.669-1.642 3.669-3.659-0-1.092-0.481-2.072-1.242-2.74l-0.004-0.004c0.765-0.672 1.246-1.652 1.246-2.744 0-0 0-0.001 0-0.001v0zM12.903 18.525c-0.003 1.011-0.823 1.83-1.834 1.83 0 0 0 0 0 0h-3.669v-3.658h3.669c0 0 0 0 0 0 1.011 0 1.831 0.818 1.834 1.829v0zM7.4 14.866v-3.659h3.669c0 0 0 0 0 0 1.011 0 1.832 0.819 1.834 1.829v0c-0.003 1.011-0.823 1.83-1.834 1.83 0 0 0 0 0 0h-3.669zM21.159 13.037c-2.529 0-4.586 2.052-4.586 4.574s2.057 4.573 4.586 4.573c1.687-0.002 3.161-0.911 3.962-2.265l0.012-0.021-1.588-0.916c-0.486 0.827-1.371 1.373-2.383 1.373-1.19 0-2.203-0.754-2.589-1.81l-0.006-0.019h7.181v-0.914c0-2.522-2.058-4.574-4.587-4.574zM18.564 16.696c0.392-1.075 1.405-1.828 2.595-1.828s2.202 0.753 2.589 1.809l0.006 0.019h-5.189zM17.49 9.378h7.338v1.829h-7.338v-1.829z"></path>
</svg>
