<!-- Generated by IcoMoon.io -->
<svg version="1.1" xmlns="http://www.w3.org/2000/svg" width="32" height="32" viewBox="0 0 32 32">
<title>bool</title>
<path d="M15.643 0c-8.618 0-15.643 7.184-15.643 15.999s7.024 15.999 15.643 15.999 15.643-7.184 15.643-15.999c0-8.815-7.024-15.999-15.643-15.999zM15.643 2.462c3.144 0 6.016 1.115 8.28 2.984-1.15 1.446-3.264 3.454-6.806 4.77-1.926-3.562-3.535-5.838-4.656-7.346 0.953-0.254 2.049-0.402 3.178-0.408h0.004zM10.078 3.73c0.941 1.238 2.64 3.57 4.663 7.215-5.197 1.392-9.89 1.485-11.846 1.423 1.046-3.846 3.693-6.992 7.182-8.638zM25.654 7.154c2.007 2.367 3.227 5.457 3.227 8.831 0 0.531-0.030 1.055-0.089 1.57l0.006-0.063c-0.437-0.062-0.76-0.115-1.317-0.162-0.702-0.056-1.521-0.089-2.346-0.089-1.643 0-3.256 0.127-4.83 0.373l0.175-0.022c-0.815-2.147-1.574-3.853-2.41-5.513l0.154 0.337c3.715-1.454 6.069-3.6 7.43-5.262zM15.884 13.176c0.646 1.239 1.379 2.856 2.040 4.509l0.141 0.399c-3.166 0.961-6.046 3.154-8.258 5.192-1.012 0.929-1.949 1.88-2.838 2.876l-0.035 0.039c-2.789-2.504-4.536-6.122-4.536-10.148 0-0.013 0-0.025 0-0.038v0.002c0-0.408 0.031-0.792 0.061-1.185 1.715 0.070 7.198 0.123 13.425-1.646zM23.849 19.714c1.85-0.070 3.309 0.062 4.467 0.192-0.894 3.027-2.737 5.541-5.178 7.264l-0.042 0.028c-0.398-2.53-1.015-4.961-1.76-7.253 0.697-0.1 1.563-0.183 2.439-0.228l0.073-0.003zM18.93 20.391c0.858 2.53 1.534 5.23 1.918 8.062-1.535 0.685-3.327 1.084-5.212 1.084h-0c-2.474 0-4.768-0.7-6.746-1.892 0.67-0.73 1.496-1.616 2.52-2.546 2.128-1.954 4.903-3.946 7.52-4.708z"></path>
</svg>
