<!-- Generated by IcoMoon.io -->
<svg version="1.1" xmlns="http://www.w3.org/2000/svg" width="21" height="32" viewBox="0 0 21 32">
<title>figma</title>
<path fill="#0acf83" d="M5.411 32c2.89 0 5.235-2.388 5.235-5.331v-5.331h-5.235c-2.891 0-5.236 2.388-5.236 5.331s2.345 5.331 5.236 5.331z"></path>
<path fill="#a259ff" d="M0.176 16c0-2.944 2.345-5.331 5.235-5.331h5.235v10.669h-5.235c-2.891-0.007-5.236-2.394-5.236-5.338z"></path>
<path fill="#f24e1e" d="M0.176 5.331c0-2.944 2.345-5.331 5.235-5.331h5.235v10.669h-5.235c-2.891 0-5.236-2.394-5.236-5.338z"></path>
<path fill="#ff7262" d="M10.652 0h5.235c2.89 0 5.235 2.388 5.235 5.331s-2.344 5.33-5.234 5.33h-5.236v-10.662z"></path>
<path fill="#1abcfe" d="M21.123 16c0 2.944-2.345 5.331-5.236 5.331s-5.235-2.388-5.235-5.331c0-2.944 2.345-5.331 5.235-5.331s5.235 2.388 5.235 5.331z"></path>
</svg>
