<!-- Generated by IcoMoon.io -->
<svg version="1.1" xmlns="http://www.w3.org/2000/svg" width="32" height="32" viewBox="0 0 32 32">
<title>instagram</title>
<path d="M9.085 0.008c-5.001 0-9.085 4.176-9.085 9.29v13.426c0 5.106 4.084 9.274 9.085 9.274h13.132c4.994 0 9.070-4.176 9.070-9.29v-13.419c0-5.114-4.076-9.29-9.078-9.29l-13.124 0.008zM9.085 2.469h13.124c3.7 0 6.671 3.038 6.671 6.829v13.419c0 3.791-2.971 6.829-6.664 6.829h-13.13c-3.707 0-6.678-3.038-6.678-6.814v-13.428c0.008-3.798 2.978-6.836 6.678-6.836zM25.277 4.93c-0.669 0-1.202 0.546-1.202 1.23s0.534 1.23 1.203 1.23 1.202-0.546 1.202-1.23c0-0.685-0.534-1.23-1.203-1.23zM15.652 7.39c-4.633 0-8.424 3.876-8.424 8.613s3.791 8.613 8.424 8.613c4.632 0 8.423-3.876 8.423-8.613s-3.79-8.613-8.424-8.613zM15.652 9.851c3.339 0 6.016 2.738 6.016 6.152s-2.677 6.152-6.016 6.152c-3.34 0-6.017-2.738-6.017-6.152s2.678-6.152 6.016-6.152z"></path>
</svg>
