<!-- Generated by IcoMoon.io -->
<svg version="1.1" xmlns="http://www.w3.org/2000/svg" width="32" height="32" viewBox="0 0 32 32">
<title>linkedin</title>
<path stroke="#000" stroke-linejoin="miter" stroke-linecap="butt" stroke-miterlimit="4" stroke-width="0.381" fill="#000" d="M26.89 0.655h-21.644c-2.472 0-4.484 2.005-4.484 4.471v21.586c0 2.466 2.012 4.473 4.484 4.473h21.643c2.472 0 4.484-2.007 4.484-4.473v-21.585c0-2.465-2.012-4.472-4.484-4.472zM29.58 26.712c-0.004 1.483-1.207 2.683-2.69 2.683 0 0 0 0 0 0h-21.644c0 0 0 0 0 0-1.483 0-2.686-1.2-2.69-2.682v-21.587c0.004-1.482 1.207-2.683 2.69-2.683 0 0 0 0 0 0h21.644c0 0 0 0 0 0 1.483 0 2.686 1.2 2.69 2.682v21.586z"></path>
<path d="M24.485 22.783h-3.286v-5.488c0-0.379-0.027-0.753-0.123-1.123-0.392-1.523-2.089-1.434-2.764-0.712-0.339 0.363-0.56 0.773-0.57 1.28-0.002 0.12-0.009 0.241-0.009 0.361v5.681h-3.28v-10.185h3.279v1.366l0.026 0.011 0.070-0.095c0.329-0.457 0.706-0.861 1.208-1.134 0.561-0.306 1.166-0.409 1.796-0.39 0.682 0.020 1.33 0.173 1.913 0.54 0.747 0.47 1.203 1.158 1.47 1.985 0.208 0.643 0.276 1.308 0.277 1.98 0.002 1.934 0 3.869 0 5.804 0 0.038-0.003 0.076-0.005 0.119zM12.448 22.789h-3.262v-10.196h3.262v10.196zM10.957 7.524c1.027-0.002 1.754 0.729 1.757 1.767 0.004 1.026-0.735 1.753-1.782 1.753-1.021 0-1.751-0.73-1.753-1.757s0.738-1.76 1.777-1.762z"></path>
</svg>
