<!-- Generated by IcoMoon.io -->
<svg version="1.1" xmlns="http://www.w3.org/2000/svg" width="32" height="32" viewBox="0 0 32 32">
<title>ph</title>
<path fill="#000" d="M1.335 1.361h29.363v29.071h-29.363v-29.071z"></path>
<path fill="#31c5f0" d="M1.335 1.361h29.363v29.071h-29.363v-29.071zM0 31.79h32.026v-31.789h-32.026v31.789zM21.597 13.047c-1.052 0-1.412 0.542-1.412 0.993 0 0.49 0.237 0.83 1.656 1.575 2.092 1.032 2.747 2.025 2.747 3.475 0 2.175-1.63 3.345-3.832 3.345-1.161 0-2.163-0.242-2.734-0.581-0.096-0.039-0.109-0.111-0.109-0.216v-2.005c0-0.137 0.064-0.176 0.161-0.111 0.756 0.502 1.684 0.802 2.682 0.804h0.001c1.053 0 1.496-0.451 1.496-1.059 0-0.49-0.308-0.921-1.656-1.633-1.893-0.921-2.683-1.855-2.683-3.423 0-1.751 1.348-3.208 3.684-3.208 1.149 0 1.951 0.176 2.387 0.379 0.109 0.065 0.135 0.177 0.135 0.274v1.862c0 0.111-0.064 0.176-0.199 0.137-0.59-0.379-1.457-0.608-2.323-0.608zM10.121 14.662c0.308 0.026 0.545 0.026 1.078 0.026 1.559 0 3.029-0.555 3.029-2.717 0-1.725-1.052-2.594-2.83-2.594-0.457 0.002-0.905 0.016-1.35 0.043l0.067-0.003 0.006 5.246zM7.74 7.449c0-0.098 0.186-0.163 0.295-0.163 0.854-0.039 2.125-0.065 3.44-0.065 3.697 0 5.141 2.065 5.141 4.697 0 3.45-2.458 4.932-5.475 4.932-0.507 0-0.68-0.026-1.040-0.026v5.213c0 0.111-0.038 0.163-0.16 0.163h-2.041c-0.109 0-0.161-0.039-0.161-0.163v-14.588z"></path>
</svg>
