<svg aria-hidden="true" style="position: absolute; width: 0; height: 0; overflow: hidden;" version="1.1" xmlns="http://www.w3.org/2000/svg" xmlns:xlink="http://www.w3.org/1999/xlink">
<defs>
<symbol id="icon-ae" viewBox="0 0 32 32">
<path fill="#000" style="fill: var(--color1, #000)" d="M1.511 1.362h29.397v29.125h-29.396v-29.125z"></path>
<path fill="#d8a1ff" style="fill: var(--color2, #d8a1ff)" d="M1.511 1.362h29.397v29.125h-29.396v-29.125zM0.175 31.848h32.075v-31.846h-32.076v31.846zM22.867 15.352c0.681 0 0.925 0 0.989-0.026 0-0.098 0.026-0.164 0.026-0.229 0-0.732-0.347-2.093-1.734-2.093-1.284 0-1.83 1.144-1.965 2.355h2.685v-0.007zM20.156 17.217c0.026 1.838 0.88 3.074 2.916 3.074 0.79 0 1.471-0.111 2.177-0.419 0.096-0.039 0.161-0.026 0.161 0.098v1.701c0 0.137-0.038 0.203-0.135 0.275-0.707 0.353-1.593 0.517-2.685 0.517-3.526 0-4.849-2.655-4.849-5.605 0-3.211 1.631-5.841 4.502-5.841 2.916 0 3.931 2.492 3.931 4.52 0 0.654-0.039 1.184-0.109 1.445-0.026 0.111-0.064 0.15-0.173 0.177-0.27 0.040-1.053 0.098-2.229 0.098h-3.501v-0.040h-0.006zM12.988 15.83c-0.373-1.511-1.285-4.801-1.618-6.396h-0.026c-0.283 1.589-1.015 4.284-1.56 6.396h3.205zM9.238 18.034l-1.053 4.069c-0.026 0.111-0.064 0.15-0.199 0.15h-1.972c-0.135 0-0.161-0.040-0.135-0.203l3.796-13.513c0.064-0.242 0.109-0.438 0.135-1.118 0-0.098 0.038-0.137 0.109-0.137h2.807c0.096 0 0.135 0.026 0.16 0.137l4.246 14.657c0.026 0.111 0 0.177-0.109 0.177h-2.203c-0.109 0-0.173-0.040-0.199-0.137l-1.098-4.081h-4.284z"></path>
</symbol>
<symbol id="icon-ai" viewBox="0 0 32 32">
<path fill="#000" style="fill: var(--color1, #000)" d="M1.511 1.362h29.397v29.125h-29.396v-29.125z"></path>
<path fill="#ff7f18" style="fill: var(--color3, #ff7f18)" d="M1.511 1.362h29.397v29.125h-29.396v-29.125zM0.175 31.848h32.075v-31.846h-32.076v31.846zM21.184 11.356c0-0.111 0.039-0.164 0.161-0.164h2.101c0.109 0 0.16 0.040 0.16 0.164v10.74c0 0.111-0.026 0.163-0.16 0.163h-2.075c-0.135 0-0.174-0.065-0.174-0.176v-10.727h-0.013zM21.036 8.262c0-0.87 0.604-1.386 1.362-1.386 0.816 0 1.362 0.556 1.362 1.386 0 0.896-0.572 1.387-1.387 1.387-0.771 0.006-1.336-0.484-1.336-1.387zM15.025 15.83c-0.373-1.511-1.259-4.801-1.593-6.396h-0.026c-0.283 1.589-0.989 4.284-1.548 6.396h3.167zM11.312 18.034l-1.053 4.082c-0.026 0.111-0.064 0.137-0.199 0.137h-1.966c-0.135 0-0.16-0.040-0.135-0.203l3.796-13.526c0.064-0.242 0.109-0.465 0.135-1.131 0-0.098 0.039-0.137 0.109-0.137h2.807c0.096 0 0.135 0.026 0.161 0.137l4.252 14.684c0.026 0.111 0 0.177-0.109 0.177h-2.216c-0.109 0-0.173-0.026-0.199-0.124l-1.098-4.094h-4.284z"></path>
</symbol>
<symbol id="icon-figma" viewBox="0 0 21 32">
<path fill="#0acf83" style="fill: var(--color4, #0acf83)" d="M5.411 32c2.89 0 5.235-2.388 5.235-5.331v-5.331h-5.235c-2.891 0-5.236 2.388-5.236 5.331s2.345 5.331 5.236 5.331z"></path>
<path fill="#a259ff" style="fill: var(--color5, #a259ff)" d="M0.176 16c0-2.944 2.345-5.331 5.235-5.331h5.235v10.669h-5.235c-2.891-0.007-5.236-2.394-5.236-5.338z"></path>
<path fill="#f24e1e" style="fill: var(--color6, #f24e1e)" d="M0.176 5.331c0-2.944 2.345-5.331 5.235-5.331h5.235v10.669h-5.235c-2.891 0-5.236-2.394-5.236-5.338z"></path>
<path fill="#ff7262" style="fill: var(--color7, #ff7262)" d="M10.652 0h5.235c2.89 0 5.235 2.388 5.235 5.331s-2.344 5.33-5.234 5.33h-5.236v-10.662z"></path>
<path fill="#1abcfe" style="fill: var(--color8, #1abcfe)" d="M21.123 16c0 2.944-2.345 5.331-5.236 5.331s-5.235-2.388-5.235-5.331c0-2.944 2.345-5.331 5.235-5.331s5.235 2.388 5.235 5.331z"></path>
</symbol>
<symbol id="cross" viewBox="0 0 32 32">
<path d="M3.739 0l26.932 26.932-3.739 3.739-26.932-26.932z"></path>
<path d="M1.156 27.213l26.932-26.932 3.739 3.739-26.932 26.932z"></path>
</symbol>
<symbol id="icon-linkedin" viewBox="0 0 32 32">
<path stroke-linejoin="miter" stroke-linecap="butt" stroke-miterlimit="4" stroke-width="0.381" d="M26.89 0.655h-21.644c-2.472 0-4.484 2.005-4.484 4.471v21.586c0 2.466 2.012 4.473 4.484 4.473h21.643c2.472 0 4.484-2.007 4.484-4.473v-21.585c0-2.465-2.012-4.472-4.484-4.472zM29.58 26.712c-0.004 1.483-1.207 2.683-2.69 2.683 0 0 0 0 0 0h-21.644c0 0 0 0 0 0-1.483 0-2.686-1.2-2.69-2.682v-21.587c0.004-1.482 1.207-2.683 2.69-2.683 0 0 0 0 0 0h21.644c0 0 0 0 0 0 1.483 0 2.686 1.2 2.69 2.682v21.586z"></path>
<path d="M24.485 22.783h-3.286v-5.488c0-0.379-0.027-0.753-0.123-1.123-0.392-1.523-2.089-1.434-2.764-0.712-0.339 0.363-0.56 0.773-0.57 1.28-0.002 0.12-0.009 0.241-0.009 0.361v5.681h-3.28v-10.185h3.279v1.366l0.026 0.011 0.070-0.095c0.329-0.457 0.706-0.861 1.208-1.134 0.561-0.306 1.166-0.409 1.796-0.39 0.682 0.020 1.33 0.173 1.913 0.54 0.747 0.47 1.203 1.158 1.47 1.985 0.208 0.643 0.276 1.308 0.277 1.98 0.002 1.934 0 3.869 0 5.804 0 0.038-0.003 0.076-0.005 0.119zM12.448 22.789h-3.262v-10.196h3.262v10.196zM10.957 7.524c1.027-0.002 1.754 0.729 1.757 1.767 0.004 1.026-0.735 1.753-1.782 1.753-1.021 0-1.751-0.73-1.753-1.757s0.738-1.76 1.777-1.762z"></path>
</symbol>
<symbol id="menu" viewBox="0 0 53 32">
<path d="M0-0.001h52.805v6.14h-52.805zM0 12.278h52.805v6.14h-52.805zM0 24.561h52.805v6.14h-52.805z"></path>
</symbol>
<symbol id="icon-instagram" viewBox="0 0 32 32">
<path d="M9.085 0.008c-5.001 0-9.085 4.176-9.085 9.29v13.426c0 5.106 4.084 9.274 9.085 9.274h13.132c4.994 0 9.070-4.176 9.070-9.29v-13.419c0-5.114-4.076-9.29-9.078-9.29l-13.124 0.008zM9.085 2.469h13.124c3.7 0 6.671 3.038 6.671 6.829v13.419c0 3.791-2.971 6.829-6.664 6.829h-13.13c-3.707 0-6.678-3.038-6.678-6.814v-13.428c0.008-3.798 2.978-6.836 6.678-6.836zM25.277 4.93c-0.669 0-1.202 0.546-1.202 1.23s0.534 1.23 1.203 1.23 1.202-0.546 1.202-1.23c0-0.685-0.534-1.23-1.203-1.23zM15.652 7.39c-4.633 0-8.424 3.876-8.424 8.613s3.791 8.613 8.424 8.613c4.632 0 8.423-3.876 8.423-8.613s-3.79-8.613-8.424-8.613zM15.652 9.851c3.339 0 6.016 2.738 6.016 6.152s-2.677 6.152-6.016 6.152c-3.34 0-6.017-2.738-6.017-6.152s2.678-6.152 6.016-6.152z"></path>
</symbol>
<symbol id="icon-be" viewBox="0 0 32 32">
<path stroke-linejoin="miter" stroke-linecap="butt" stroke-miterlimit="4" stroke-width="0.3902" d="M26.724 0.169h-22.138c-2.528 0-4.586 2.051-4.586 4.574v22.075c0 2.522 2.058 4.574 4.587 4.574h22.138c2.529 0 4.586-2.052 4.586-4.574v-22.075c0-2.523-2.058-4.574-4.587-4.574zM29.476 26.819c-0.004 1.517-1.234 2.745-2.752 2.745-0 0-0.001 0-0.001 0h-22.138c0 0 0 0 0 0-1.517 0-2.748-1.228-2.752-2.744v-22.076c0.004-1.517 1.234-2.745 2.752-2.745 0 0 0.001 0 0.001 0h22.138c0 0 0 0 0 0 1.517 0 2.747 1.228 2.752 2.743v22.076z"></path>
<path stroke-linejoin="miter" stroke-linecap="butt" stroke-miterlimit="4" stroke-width="0.3902" d="M14.738 13.037c0-2.018-1.646-3.659-3.669-3.659h-5.503v12.806h5.503c2.023 0 3.669-1.642 3.669-3.659-0-1.092-0.481-2.072-1.242-2.74l-0.004-0.004c0.765-0.672 1.246-1.652 1.246-2.744 0-0 0-0.001 0-0.001v0zM12.903 18.525c-0.003 1.011-0.823 1.83-1.834 1.83 0 0 0 0 0 0h-3.669v-3.658h3.669c0 0 0 0 0 0 1.011 0 1.831 0.818 1.834 1.829v0zM7.4 14.866v-3.659h3.669c0 0 0 0 0 0 1.011 0 1.832 0.819 1.834 1.829v0c-0.003 1.011-0.823 1.83-1.834 1.83 0 0 0 0 0 0h-3.669zM21.159 13.037c-2.529 0-4.586 2.052-4.586 4.574s2.057 4.573 4.586 4.573c1.687-0.002 3.161-0.911 3.962-2.265l0.012-0.021-1.588-0.916c-0.486 0.827-1.371 1.373-2.383 1.373-1.19 0-2.203-0.754-2.589-1.81l-0.006-0.019h7.181v-0.914c0-2.522-2.058-4.574-4.587-4.574zM18.564 16.696c0.392-1.075 1.405-1.828 2.595-1.828s2.202 0.753 2.589 1.809l0.006 0.019h-5.189zM17.49 9.378h7.338v1.829h-7.338v-1.829z"></path>
</symbol>
<symbol id="icon-bool" viewBox="0 0 32 32">
<path d="M15.643 0c-8.618 0-15.643 7.184-15.643 15.999s7.024 15.999 15.643 15.999 15.643-7.184 15.643-15.999c0-8.815-7.024-15.999-15.643-15.999zM15.643 2.462c3.144 0 6.016 1.115 8.28 2.984-1.15 1.446-3.264 3.454-6.806 4.77-1.926-3.562-3.535-5.838-4.656-7.346 0.953-0.254 2.049-0.402 3.178-0.408h0.004zM10.078 3.73c0.941 1.238 2.64 3.57 4.663 7.215-5.197 1.392-9.89 1.485-11.846 1.423 1.046-3.846 3.693-6.992 7.182-8.638zM25.654 7.154c2.007 2.367 3.227 5.457 3.227 8.831 0 0.531-0.030 1.055-0.089 1.57l0.006-0.063c-0.437-0.062-0.76-0.115-1.317-0.162-0.702-0.056-1.521-0.089-2.346-0.089-1.643 0-3.256 0.127-4.83 0.373l0.175-0.022c-0.815-2.147-1.574-3.853-2.41-5.513l0.154 0.337c3.715-1.454 6.069-3.6 7.43-5.262zM15.884 13.176c0.646 1.239 1.379 2.856 2.040 4.509l0.141 0.399c-3.166 0.961-6.046 3.154-8.258 5.192-1.012 0.929-1.949 1.88-2.838 2.876l-0.035 0.039c-2.789-2.504-4.536-6.122-4.536-10.148 0-0.013 0-0.025 0-0.038v0.002c0-0.408 0.031-0.792 0.061-1.185 1.715 0.070 7.198 0.123 13.425-1.646zM23.849 19.714c1.85-0.070 3.309 0.062 4.467 0.192-0.894 3.027-2.737 5.541-5.178 7.264l-0.042 0.028c-0.398-2.53-1.015-4.961-1.76-7.253 0.697-0.1 1.563-0.183 2.439-0.228l0.073-0.003zM18.93 20.391c0.858 2.53 1.534 5.23 1.918 8.062-1.535 0.685-3.327 1.084-5.212 1.084h-0c-2.474 0-4.768-0.7-6.746-1.892 0.67-0.73 1.496-1.616 2.52-2.546 2.128-1.954 4.903-3.946 7.52-4.708z"></path>
</symbol>
<symbol id="icon-ph" viewBox="0 0 32 32">
<path fill="#000" style="fill: var(--color1, #000)" d="M1.335 1.361h29.363v29.071h-29.363v-29.071z"></path>
<path fill="#31c5f0" style="fill: var(--color10, #31c5f0)" d="M1.335 1.361h29.363v29.071h-29.363v-29.071zM0 31.79h32.026v-31.789h-32.026v31.789zM21.597 13.047c-1.052 0-1.412 0.542-1.412 0.993 0 0.49 0.237 0.83 1.656 1.575 2.092 1.032 2.747 2.025 2.747 3.475 0 2.175-1.63 3.345-3.832 3.345-1.161 0-2.163-0.242-2.734-0.581-0.096-0.039-0.109-0.111-0.109-0.216v-2.005c0-0.137 0.064-0.176 0.161-0.111 0.756 0.502 1.684 0.802 2.682 0.804h0.001c1.053 0 1.496-0.451 1.496-1.059 0-0.49-0.308-0.921-1.656-1.633-1.893-0.921-2.683-1.855-2.683-3.423 0-1.751 1.348-3.208 3.684-3.208 1.149 0 1.951 0.176 2.387 0.379 0.109 0.065 0.135 0.177 0.135 0.274v1.862c0 0.111-0.064 0.176-0.199 0.137-0.59-0.379-1.457-0.608-2.323-0.608zM10.121 14.662c0.308 0.026 0.545 0.026 1.078 0.026 1.559 0 3.029-0.555 3.029-2.717 0-1.725-1.052-2.594-2.83-2.594-0.457 0.002-0.905 0.016-1.35 0.043l0.067-0.003 0.006 5.246zM7.74 7.449c0-0.098 0.186-0.163 0.295-0.163 0.854-0.039 2.125-0.065 3.44-0.065 3.697 0 5.141 2.065 5.141 4.697 0 3.45-2.458 4.932-5.475 4.932-0.507 0-0.68-0.026-1.040-0.026v5.213c0 0.111-0.038 0.163-0.16 0.163h-2.041c-0.109 0-0.161-0.039-0.161-0.163v-14.588z"></path>
</symbol>
</defs>
</svg>
